<svg version="1.1" id="Layer_1" xmlns="http://www.w3.org/2000/svg" xmlns:xlink="http://www.w3.org/1999/xlink" x="0px" y="0px" viewBox="0 0 128 128" style="enable-background:new 0 0 128 128;" xml:space="preserve"><style type="text/css">
	.st0{fill:#4484DD;}
	.st1{fill:#1565D4;}
</style><g><g><path class="st0" d="M50.2,54.3c-1.5-1.4-3.5-2.1-6.1-2.1c-4,0-6.8,1.6-8.4,4.9c-1.6,3.3-2.5,8.2-2.5,14.9c0,1.1,0,2.2,0.1,3.2
			c0.1,1,0.1,2,0.2,3l20-18.1C52.8,57.6,51.7,55.7,50.2,54.3z"></path><path class="st0" d="M0,85.3l64,32.8V9.9L0,85.3z M59.5,82.2c-0.7,3-1.7,5.6-3,7.7c-1.3,2.1-3.1,3.7-5.1,4.8
			c-2.1,1.1-4.5,1.6-7.3,1.6c-3,0-5.5-0.6-7.6-1.8c-2.1-1.2-3.8-2.9-5.1-5c-1.3-2.1-2.3-4.7-2.9-7.7c-0.6-3-0.9-6.3-0.9-9.8
			c0-3.8,0.3-7.2,1-10.2c0.7-3,1.7-5.6,3-7.7c1.3-2.1,3.1-3.7,5.1-4.8c2.1-1.1,4.5-1.6,7.3-1.6c3,0,5.6,0.5,7.6,1.6
			c2.1,1.1,3.8,2.6,5.1,4.7c1.3,2.1,2.2,4.6,2.8,7.6c0.6,3,0.9,6.5,0.9,10.4C60.6,75.7,60.2,79.2,59.5,82.2z"></path><path class="st0" d="M34.6,83.4c0.8,2.6,1.9,4.6,3.4,6.1c1.5,1.5,3.5,2.3,6,2.3c3.9,0,6.7-1.6,8.4-4.9c1.7-3.3,2.5-8.2,2.5-14.9
			c0-2.4-0.1-4.6-0.4-6.8L34.6,83.4z"></path></g><g><path class="st1" d="M64,9.9v108.2l64-32.8L64,9.9z M83.2,81.7L72.4,95.4h-6.1l13.9-17.2l-13-16.4h6.7l9.7,12.6l9.9-12.6h6
			L86.6,78l13.8,17.5h-6.4L83.2,81.7z"></path></g></g></svg>